<svg data-v-0dd9719b="" version="1.0" xmlns="http://www.w3.org/2000/svg" xmlns:xlink="http://www.w3.org/1999/xlink" width="100%" height="100%" viewBox="0 0 340.000000 250.000000" preserveAspectRatio="xMidYMid meet" color-interpolation-filters="sRGB" style="margin: auto;"> <rect data-v-0dd9719b="" x="0" y="0" width="100%" height="100%" fill="#ffffff" fill-opacity="1" class="background"></rect> <rect data-v-0dd9719b="" x="0" y="0" width="100%" height="100%" fill="url(#watermark)" fill-opacity="1" class="watermarklayer"></rect> <g data-v-0dd9719b="" fill="#3a533d" class="icon-text-wrapper icon-svg-group iconsvg" transform="translate(54.64500427246094,94.99939918518066)"><g class="iconsvg-imagesvg" transform="translate(0,0)"><g><rect fill="#3a533d" fill-opacity="0" stroke-width="2" x="0" y="0" width="59.99999999999955" height="60.001200024000035" class="image-rect"></rect> <svg x="0" y="0" width="59.99999999999955" height="60.001200024000035" filtersec="colorsb3627863525" class="image-svg-svg primary" style="overflow: visible;"><svg version="1.1" id="cube" xmlns="http://www.w3.org/2000/svg" xmlns:xlink="http://www.w3.org/1999/xlink" x="0px" y="0px" viewBox="9.789997100830078 7.599999904632568 490.46002197265625 490.47003173828125" enable-background="new 0 0 511 507.62" xml:space="preserve">
<path fill="#3a533d" d="M372.43,83.05L290.7,222.44c-10.87,18.55-4.65,42.4,13.89,53.27l131.08,76.86
	c18.54,10.87,42.41,4.53,49.78-15.66c9.58-26.22,14.8-54.53,14.8-84.07c0-70.68-29.9-134.37-77.74-179.13
	C406.82,59.02,383.3,64.5,372.43,83.05z"></path>
<path fill="#3a533d" d="M273.91,212.6l81.96-139.78c10.87-18.55,4.58-42.49-15.57-49.97C313.74,12.99,285.01,7.6,255.02,7.6
	c-74.3,0-140.88,33.05-185.84,85.24c-14.03,16.29-7.94,40.19,10.6,51.06l140.86,82.59C239.19,237.36,263.04,231.14,273.91,212.6z"></path>
<path fill="#b4dd7b" d="M147.17,428.76l77.51-132.21c10.87-18.55,4.65-42.4-13.89-53.27L70.21,160.86
	c-18.54-10.88-41.86-4.23-48.49,16.22c-7.74,23.86-11.93,49.32-11.93,75.76c0,74.76,33.46,141.7,86.21,186.68
	C112.36,453.47,136.3,447.3,147.17,428.76z"></path>
<path fill="#b4dd7b" d="M241.48,306.39l-77.29,131.83c-10.87,18.55-4.19,41.78,16.3,48.31c23.51,7.49,48.55,11.54,74.54,11.54
	c71.14,0,135.2-30.29,179.99-78.68c14.61-15.78,9.05-39.35-9.5-50.22L294.75,292.5C276.2,281.63,252.35,287.85,241.48,306.39z"></path>
</svg></svg> <!----></g></g> <g transform="translate(67,6.396537780761719)"><g data-gra="path-name" fill-rule="" class="tp-name iconsvg-namesvg" transform="translate(0,0)"><g transform="scale(1)"><g><path d="M4-18.31L4-22.72 0.99-22.72 6.03-32.45 12.64-32.45 35.32-32.45 40.37-22.72 37.57-22.72 37.57-18.31 4-18.31ZM30.78-28.62L10.62-28.62 7.56-22.77 33.84-22.77 30.78-28.62ZM38.92-15.88L38.92-4.91Q38.92-3.87 38.54-2.97 38.16-2.07 37.48-1.4 36.81-0.72 35.91-0.34 35.01 0.04 33.98 0.04L33.98 0.04 2.61 0.04 2.61-15.88 38.92-15.88ZM32.67-5.85L32.67-11.43 8.87-11.43 8.87-4.41 31.27-4.41Q31.86-4.41 32.27-4.81 32.67-5.22 32.67-5.85L32.67-5.85ZM60.21-30.55L60.21-32.45 82.26-32.45 82.26-16.11Q82.26-15.07 81.88-14.17 81.5-13.28 80.82-12.6 80.14-11.92 79.25-11.54 78.34-11.16 77.31-11.16L77.31-11.16 66.47-11.16 66.47-5.8Q66.47-5.22 66.87-4.81 67.28-4.41 67.86-4.41L67.86-4.41 82.13-4.41 80.14 0.04 65.16 0.04Q64.13 0.04 63.22-0.34 62.33-0.72 61.65-1.4 60.97-2.07 60.59-2.97 60.21-3.87 60.21-4.91L60.21-4.91 60.21-27.99 60.21-30.55ZM66.47-27.99L66.47-15.62 68.44-15.62 68.44-27.99 66.47-27.99ZM76-17.05L76-27.99 74.03-27.99 74.03-15.62 74.61-15.62Q75.19-15.62 75.6-16.02 76-16.43 76-17.05L76-17.05ZM52.96-32.45L55.13-32.45Q56.61-32.45 57.64-31.41 58.68-30.38 58.68-28.89L58.68-28.89 58.68-3.6Q58.68-2.61 58.39-1.91 58.09-1.21 57.64-0.79 57.2-0.36 56.7-0.16 56.2 0.04 55.75 0.04L55.75 0.04 50.4 0.04 51.7-3.01 52.42-3.01Q52.65-3.01 52.72-3.1 52.78-3.19 52.88-3.28L52.88-3.28 52.96-3.55 52.96-9.4 48.15-9.4 48.15-4.32 47.16 0.04 41.89 0.04 42.7-4.32 42.7-32.45 45.23-32.45 48.15-32.45 52.96-32.45ZM51.52-27.99L48.15-27.99 48.15-23.13 52.96-23.13 52.96-26.59Q52.96-27.18 52.56-27.58 52.16-27.99 51.52-27.99L51.52-27.99ZM48.15-13.81L52.96-13.81 52.96-18.72 48.15-18.72 48.15-13.81ZM90-0.04L83.79-0.04 89.23-22 95.44-22 90-0.04ZM117-0.04L111.64-22 117.81-22 123.16-0.04 117-0.04ZM106.52-0.04L100.48-0.04 100.48-24.43 83.79-24.43 83.79-29.07 100.48-29.07 100.48-32.4 106.52-32.4 106.52-29.07 123.16-29.07 123.16-24.43 106.52-24.43 106.52-0.04ZM135-32.35L141.16-32.35 141.16-5.26Q141.16-4.86 141.46-4.57 141.75-4.27 142.15-4.27L142.15-4.27 154.98-4.27 153.45-0.09 139.32-0.09Q137.52-0.09 136.26-1.35 135-2.61 135-4.41L135-4.41 135-32.35ZM125.1-2.11L128.07-29.02 134.1-29.02 131.17-2.11 125.1-2.11ZM149.13-31.63L153.49-7.42 147.19-7.42 142.83-31.63 149.13-31.63ZM158.89-29.02L164.7-0.77 158.4-0.77 152.59-29.02 158.89-29.02Z" transform="translate(-0.9900000095367432, 32.45000076293945)"></path></g> <!----> <!----> <!----> <!----> <!----> <!----> <!----></g></g> <g data-gra="path-slogan" fill-rule="" class="tp-slogan iconsvg-slogansvg" fill="#3a533d" transform="translate(5,38.4900016784668)"><rect x="0" height="1" y="3.8600001335144043" width="26.259994506835938"></rect> <rect height="1" y="3.8600001335144043" width="26.259994506835938" x="127.44999694824219"></rect> <g transform="translate(29.259994506835938,0)"><g transform="scale(1)"><path d="M2.06-5.06L6.56-5.06L6.56-8.58L7.73-8.58L7.73 0L6.56 0L6.56-3.98L2.06-3.98L2.06 0L0.89 0L0.89-8.58L2.06-8.58L2.06-5.06ZM12.83-1.03L17.98-1.03L17.98 0L11.66 0L11.66-8.58L17.89-8.58L17.89-7.59L12.83-7.59L12.83-4.92L17.52-4.92L17.52-3.89L12.83-3.89L12.83-1.03ZM27.02-3.89L22.80-3.89L22.80 0L21.63 0L21.63-8.58L27.58-8.58L27.58-7.59L22.80-7.59L22.80-4.92L27.02-4.92L27.02-3.89ZM32.06-1.03L37.22-1.03L37.22 0L30.89 0L30.89-8.58L37.13-8.58L37.13-7.59L32.06-7.59L32.06-4.92L36.75-4.92L36.75-3.89L32.06-3.89L32.06-1.03ZM40.91-8.58L42.08-8.58L42.08 0L40.91 0L40.91-8.58ZM59.63-8.58L59.63 0L58.50 0L58.50-5.06Q58.50-5.77 58.50-7.22L58.50-7.22L56.06 0L54.89 0L52.50-7.22L52.45-7.22Q52.45-6.70 52.50-5.67L52.50-5.67Q52.50-5.16 52.50-5.06L52.50-5.06L52.50 0L51.33 0L51.33-8.58L53.02-8.58L55.50-1.31L57.94-8.58L59.63-8.58ZM68.98-3.19L68.98-8.58L70.16-8.58L70.16-3.05Q70.02 0.05 66.64 0.14L66.64 0.14Q63.50 0.05 63.36-2.86L63.36-2.86L63.36-8.58L64.53-8.58L64.53-3.19Q64.58-0.84 66.69-0.80L66.69-0.80Q68.98-0.84 68.98-3.19L68.98-3.19ZM80.69-8.58L77.78-4.41L80.83 0L79.38 0L77.03-3.52L74.69 0L73.28 0L76.38-4.41L73.47-8.58L74.92-8.58L77.08-5.30L79.28-8.58L80.69-8.58ZM84.09-8.58L85.27-8.58L85.27 0L84.09 0L84.09-8.58ZM90.64-8.58L94.95-1.64L94.95-8.58L96.08-8.58L96.08 0L94.77 0L90.41-6.94L90.36-6.94L90.36 0L89.23 0L89.23-8.58L90.64-8.58Z" transform="translate(-0.890625, 8.578125)"></path></g></g></g></g></g><defs v-gra="od"></defs></svg>